<svg width="221" height="39" viewBox="0 0 221 39" fill="none" xmlns="http://www.w3.org/2000/svg">
<path d="M0 0H5.22835C8.36817 0 11.1557 2.00916 12.1486 4.98785L23.2516 38.2967H18.0232C14.8834 38.2967 12.0959 36.2876 11.103 33.3089L0 0Z" fill="#2563EB"/>
<path d="M23.2515 0H28.4798C31.6196 0 34.4072 2.00916 35.4001 4.98785L46.503 38.2967H41.2747C38.1349 38.2967 35.3473 36.2876 34.3544 33.3089L23.2515 0Z" fill="#2563EB"/>
<rect x="13.1475" y="14.6176" width="19.1484" height="10.486" fill="#2563EB"/>
<path d="M72.0016 23.3401C72.0016 23.9211 72.0918 24.3318 72.2721 24.5722C72.4724 24.7926 72.793 24.9028 73.2337 24.9028C73.4341 24.9028 73.5943 24.8927 73.7145 24.8727V28.1483C73.1736 28.2285 72.6127 28.2685 72.0317 28.2685C70.5892 28.2685 69.5274 27.8979 68.8462 27.1566C68.165 26.4154 67.8245 25.2133 67.8245 23.5504V19.794C67.8245 18.8724 67.584 18.1612 67.1032 17.6604C66.6224 17.1595 65.9813 16.9091 65.1799 16.9091C64.2183 16.9091 63.457 17.2396 62.896 17.9008C62.3351 18.5419 62.0546 19.3933 62.0546 20.4552V28.1483H57.8774V7.11232H62.0546V15.1661C63.2967 13.964 64.7492 13.363 66.412 13.363C67.5139 13.363 68.4856 13.6235 69.327 14.1444C70.1685 14.6452 70.8196 15.3564 71.2804 16.278C71.7612 17.1996 72.0016 18.2714 72.0016 19.4935V23.3401ZM88.7887 22.9494C88.7887 23.6707 88.9089 24.1615 89.1493 24.4219C89.3897 24.6824 89.8906 24.7725 90.6519 24.6924V28.1483C90.151 28.2685 89.58 28.3286 88.9389 28.3286C88.0374 28.3286 87.246 28.1583 86.5649 27.8177C85.8837 27.4772 85.4129 26.9162 85.1525 26.1349C84.6516 26.8761 83.9804 27.4471 83.139 27.8478C82.2976 28.2485 81.356 28.4488 80.3142 28.4488C78.9919 28.4488 77.8199 28.1683 76.7982 27.6074C75.7964 27.0264 75.0151 26.195 74.4541 25.1131C73.8932 24.0112 73.6127 22.709 73.6127 21.2064C73.6127 19.4835 73.9934 18.041 74.7547 16.879C75.536 15.697 76.5878 14.8155 77.9101 14.2345C79.2524 13.6535 80.775 13.363 82.4779 13.363C84.5013 13.363 86.6049 13.7537 88.7887 14.535V22.9494ZM81.1556 24.8727C82.2775 24.8727 83.129 24.5221 83.71 23.8209C84.291 23.0997 84.5815 22.0879 84.5815 20.7857V17.1795C83.8402 16.9992 83.0489 16.9091 82.2074 16.9091C80.805 16.9091 79.7131 17.2697 78.9318 17.9909C78.1505 18.6921 77.7598 19.7239 77.7598 21.0862C77.7598 22.2683 78.0603 23.1998 78.6613 23.881C79.2824 24.5421 80.1138 24.8727 81.1556 24.8727ZM115.211 23.3401C115.211 23.9211 115.301 24.3318 115.481 24.5722C115.682 24.7926 115.992 24.9028 116.413 24.9028C116.613 24.9028 116.774 24.8927 116.894 24.8727V28.1483C116.193 28.2485 115.612 28.2986 115.151 28.2986C113.769 28.2986 112.727 27.938 112.026 27.2167C111.344 26.4755 111.004 25.3034 111.004 23.7007V19.7039C111.004 18.8023 110.803 18.1111 110.403 17.6303C110.002 17.1495 109.431 16.9091 108.69 16.9091C107.848 16.9091 107.157 17.1996 106.616 17.7806C106.075 18.3616 105.805 19.0828 105.805 19.9443V28.1483H101.658V19.764C101.658 18.8424 101.457 18.1412 101.057 17.6604C100.656 17.1595 100.075 16.9091 99.3138 16.9091C98.4523 16.9091 97.7611 17.1896 97.2402 17.7505C96.7193 18.2914 96.4589 19.0327 96.4589 19.9743V28.1483H92.2517V18.6521C92.2517 18.0711 92.1515 17.6704 91.9512 17.45C91.7508 17.2096 91.4103 17.0894 90.9294 17.0894C90.7091 17.0894 90.5287 17.0994 90.3885 17.1194V13.6635C91.0697 13.5433 91.7108 13.4832 92.3118 13.4832C94.2351 13.4832 95.4271 14.2345 95.8879 15.7371C97.0699 14.1544 98.6927 13.363 100.756 13.363C101.678 13.363 102.499 13.5734 103.22 13.9941C103.942 14.4148 104.523 15.0058 104.963 15.7671C105.625 14.9658 106.366 14.3647 107.187 13.964C108.009 13.5634 108.96 13.363 110.042 13.363C111.605 13.363 112.857 13.914 113.799 15.0158C114.74 16.0977 115.211 17.5402 115.211 19.3432V23.3401ZM132.099 22.9494C132.099 23.5905 132.189 24.0513 132.369 24.3318C132.55 24.5922 132.9 24.7225 133.421 24.7225C133.642 24.7225 133.822 24.7124 133.962 24.6924V28.1483C133.401 28.2685 132.8 28.3286 132.159 28.3286C130.156 28.3286 128.934 27.5974 128.493 26.1349C127.952 26.8761 127.261 27.4471 126.419 27.8478C125.598 28.2485 124.666 28.4488 123.625 28.4488C122.142 28.4488 120.89 28.1082 119.868 27.4271C118.846 26.7259 118.085 25.7943 117.584 24.6323C117.083 23.4503 116.833 22.1581 116.833 20.7557C116.833 19.4134 117.103 18.1813 117.644 17.0593C118.185 15.9174 118.987 15.0158 120.048 14.3547C121.11 13.6936 122.372 13.363 123.835 13.363C124.696 13.363 125.458 13.4832 126.119 13.7236C126.78 13.944 127.371 14.2946 127.892 14.7754V7.11232H132.099V22.9494ZM124.466 24.8727C125.628 24.8727 126.499 24.4921 127.08 23.7308C127.661 22.9494 127.952 21.9677 127.952 20.7857C127.952 19.5837 127.661 18.642 127.08 17.9609C126.519 17.2597 125.648 16.9091 124.466 16.9091C123.384 16.9091 122.533 17.2697 121.912 17.9909C121.291 18.6921 120.98 19.6237 120.98 20.7857C120.98 21.9878 121.28 22.9695 121.882 23.7308C122.483 24.4921 123.344 24.8727 124.466 24.8727ZM149.142 22.9494C149.142 23.6707 149.263 24.1615 149.503 24.4219C149.743 24.6824 150.244 24.7725 151.006 24.6924V28.1483C150.505 28.2685 149.934 28.3286 149.293 28.3286C148.391 28.3286 147.6 28.1583 146.919 27.8177C146.237 27.4772 145.767 26.9162 145.506 26.1349C145.005 26.8761 144.334 27.4471 143.493 27.8478C142.651 28.2485 141.71 28.4488 140.668 28.4488C139.346 28.4488 138.174 28.1683 137.152 27.6074C136.15 27.0264 135.369 26.195 134.808 25.1131C134.247 24.0112 133.966 22.709 133.966 21.2064C133.966 19.4835 134.347 18.041 135.108 16.879C135.89 15.697 136.942 14.8155 138.264 14.2345C139.606 13.6535 141.129 13.363 142.832 13.363C144.855 13.363 146.959 13.7537 149.142 14.535V22.9494ZM141.509 24.8727C142.631 24.8727 143.483 24.5221 144.064 23.8209C144.645 23.0997 144.935 22.0879 144.935 20.7857V17.1795C144.194 16.9992 143.403 16.9091 142.561 16.9091C141.159 16.9091 140.067 17.2697 139.286 17.9909C138.504 18.6921 138.114 19.7239 138.114 21.0862C138.114 22.2683 138.414 23.1998 139.015 23.881C139.636 24.5421 140.468 24.8727 141.509 24.8727ZM166.76 23.3401C166.76 23.9211 166.85 24.3318 167.03 24.5722C167.23 24.7926 167.541 24.9028 167.962 24.9028C168.162 24.9028 168.322 24.8927 168.443 24.8727V28.1483C167.922 28.2485 167.331 28.2986 166.67 28.2986C165.307 28.2986 164.275 27.9279 163.574 27.1867C162.893 26.4254 162.552 25.2133 162.552 23.5504V19.8541C162.552 18.9325 162.312 18.2113 161.831 17.6904C161.35 17.1695 160.689 16.9091 159.848 16.9091C158.946 16.9091 158.215 17.2296 157.654 17.8707C157.113 18.5118 156.833 19.3432 156.813 20.365V28.1483H152.605V18.6521C152.605 18.0711 152.505 17.6704 152.305 17.45C152.105 17.2096 151.764 17.0894 151.283 17.0894C151.063 17.0894 150.883 17.0994 150.742 17.1194V13.6635C151.423 13.5433 152.065 13.4832 152.666 13.4832C154.569 13.4832 155.751 14.2145 156.212 15.677C156.853 14.8956 157.594 14.3146 158.435 13.934C159.277 13.5533 160.168 13.363 161.11 13.363C162.813 13.363 164.175 13.934 165.197 15.0759C166.239 16.1979 166.76 17.6804 166.76 19.5236V23.3401ZM184.099 23.3401C184.099 23.9211 184.19 24.3318 184.37 24.5722C184.57 24.7926 184.881 24.9028 185.301 24.9028C185.502 24.9028 185.662 24.8927 185.782 24.8727V28.1483C185.261 28.2485 184.67 28.2986 184.009 28.2986C182.647 28.2986 181.615 27.9279 180.914 27.1867C180.233 26.4254 179.892 25.2133 179.892 23.5504V19.8541C179.892 18.9325 179.652 18.2113 179.171 17.6904C178.69 17.1695 178.029 16.9091 177.188 16.9091C176.286 16.9091 175.555 17.2296 174.994 17.8707C174.453 18.5118 174.172 19.3432 174.152 20.365V28.1483H169.945V18.6521C169.945 18.0711 169.845 17.6704 169.645 17.45C169.444 17.2096 169.104 17.0894 168.623 17.0894C168.403 17.0894 168.222 17.0994 168.082 17.1194V13.6635C168.763 13.5433 169.404 13.4832 170.005 13.4832C171.909 13.4832 173.091 14.2145 173.551 15.677C174.192 14.8956 174.934 14.3146 175.775 13.934C176.617 13.5533 177.508 13.363 178.45 13.363C180.153 13.363 181.515 13.934 182.537 15.0759C183.579 16.1979 184.099 17.6804 184.099 19.5236V23.3401ZM200.661 23.3401C200.661 23.901 200.751 24.3017 200.932 24.5421C201.132 24.7625 201.433 24.8727 201.833 24.8727C202.054 24.8727 202.224 24.8627 202.344 24.8427V28.1483C201.683 28.2685 201.072 28.3286 200.511 28.3286C198.608 28.3286 197.446 27.5673 197.025 26.0447C196.424 26.8661 195.723 27.4772 194.922 27.8779C194.14 28.2585 193.239 28.4488 192.217 28.4488C191.135 28.4488 190.173 28.1984 189.332 27.6975C188.491 27.1767 187.839 26.4554 187.379 25.5338C186.918 24.5922 186.687 23.5104 186.687 22.2883V18.4417C186.687 17.8006 186.567 17.3699 186.327 17.1495C186.086 16.9291 185.706 16.849 185.185 16.9091V13.6635C185.846 13.5634 186.407 13.5133 186.868 13.5133C188.21 13.5133 189.212 13.8839 189.873 14.6252C190.554 15.3664 190.895 16.5384 190.895 18.1412V21.9277C190.895 22.8693 191.125 23.6005 191.586 24.1214C192.047 24.6223 192.678 24.8727 193.479 24.8727C194.381 24.8727 195.102 24.5421 195.643 23.881C196.184 23.1998 196.454 22.3284 196.454 21.2665V13.6635H200.661V23.3401ZM211.793 13.3931C212.995 13.3931 214.137 13.7036 215.219 14.3247L213.807 17.8407C213.406 17.6003 213.015 17.44 212.635 17.3599C212.274 17.2597 211.873 17.2096 211.432 17.2096C210.511 17.2096 209.73 17.5201 209.088 18.1412C208.467 18.7623 208.157 19.6638 208.157 20.8458V28.1483H203.95V18.6521C203.95 18.0711 203.85 17.6704 203.649 17.45C203.449 17.2096 203.108 17.0894 202.627 17.0894C202.407 17.0894 202.227 17.0994 202.087 17.1194V13.6635C202.808 13.5433 203.459 13.4832 204.04 13.4832C204.981 13.4832 205.743 13.6635 206.324 14.0241C206.905 14.3848 207.315 14.9557 207.556 15.7371C208.057 14.9758 208.678 14.3948 209.419 13.9941C210.18 13.5934 210.972 13.3931 211.793 13.3931ZM216.452 28.4488C215.67 28.4488 215.029 28.2285 214.528 27.7877C214.027 27.3469 213.777 26.7559 213.777 26.0147C213.777 25.2734 214.027 24.6824 214.528 24.2416C215.029 23.8009 215.67 23.5805 216.452 23.5805C217.233 23.5805 217.874 23.8009 218.375 24.2416C218.876 24.6824 219.126 25.2734 219.126 26.0147C219.126 26.7559 218.876 27.3469 218.375 27.7877C217.874 28.2285 217.233 28.4488 216.452 28.4488Z" fill="black"/>
</svg>
