<svg width="65" height="66" viewBox="0 0 65 66" fill="none" xmlns="http://www.w3.org/2000/svg">
<g clip-path="url(#clip0_829_452)">
<path fill-rule="evenodd" clip-rule="evenodd" d="M47.514 20.1466C50.9229 24.2092 52.5783 29.4596 52.1161 34.7428C51.6539 40.026 49.1119 44.9091 45.0493 48.3181C40.9867 51.727 35.7363 53.3824 30.4531 52.9202C25.17 52.458 20.2868 49.916 16.8779 45.8534C13.4689 41.7908 11.8135 36.5404 12.2757 31.2572C12.7379 25.974 15.2799 21.0909 19.3425 17.6819C23.4051 14.273 28.6555 12.6176 33.9387 13.0798C39.2219 13.542 44.105 16.084 47.514 20.1466ZM14.6896 47.6896C18.5855 52.3325 24.1662 55.2377 30.2042 55.766C36.2421 56.2942 42.2425 54.4023 46.8855 50.5063C51.5285 46.6104 54.4336 41.0297 54.9619 34.9918C55.4901 28.9539 53.5982 22.9534 49.7023 18.3104C45.8063 13.6675 40.2256 10.7623 34.1877 10.234C28.1498 9.7058 22.1493 11.5977 17.5063 15.4936C12.8634 19.3896 9.95821 24.9703 9.42996 31.0082C8.90172 37.0461 10.7937 43.0466 14.6896 47.6896ZM24.6751 26.2591C24.4316 25.9689 24.3133 25.5939 24.3464 25.2165C24.3794 24.8391 24.5609 24.4903 24.8511 24.2468C25.1413 24.0033 25.5163 23.8851 25.8937 23.9181C26.2711 23.9511 26.6199 24.1327 26.8634 24.4229L37.5005 37.0997L38.2542 28.4609C38.2873 28.0831 38.4691 27.7338 38.7596 27.49C39.0502 27.2462 39.4257 27.1278 39.8035 27.1609C40.1814 27.1939 40.5306 27.3757 40.7744 27.6663C41.0182 27.9568 41.1366 28.3324 41.1036 28.7102L40.0473 40.7837C40.0311 40.9708 39.9782 41.153 39.8916 41.3197C39.8049 41.4864 39.6863 41.6344 39.5423 41.7551C39.3984 41.8759 39.2321 41.9671 39.0529 42.0235C38.8737 42.0798 38.6851 42.1003 38.498 42.0837L26.4245 41.0274C26.0466 40.9943 25.6974 40.8125 25.4536 40.522C25.2098 40.2314 25.0914 39.8559 25.1245 39.4781C25.1575 39.1002 25.3393 38.751 25.6299 38.5072C25.9204 38.2634 26.2959 38.145 26.6738 38.1781L35.3122 38.9359L24.6751 26.2591Z" fill="#2563EB"/>
</g>
<defs>
<clipPath id="clip0_829_452">
<rect width="45.7058" height="45.7058" fill="white" transform="matrix(-0.766044 0.642788 0.642788 0.766044 35.0127 0.804077)"/>
</clipPath>
</defs>
</svg>
